<?xml version="1.0" standalone="no"?>
<!DOCTYPE svg PUBLIC "-//W3C//DTD SVG 20010904//EN"
 "http://www.w3.org/TR/2001/REC-SVG-20010904/DTD/svg10.dtd">
<svg version="1.0" xmlns="http://www.w3.org/2000/svg"
 width="512.000000pt" height="512.000000pt" viewBox="0 0 512.000000 512.000000"
 preserveAspectRatio="xMidYMid meet">
<metadata>
Created by potrace 1.14, written by Peter Selinger 2001-2017
</metadata>
<g transform="translate(0.000000,512.000000) scale(0.100000,-0.100000)"
fill="#000000" stroke="none">
<path d="M1317 3913 c-1 -1 -31 -3 -67 -4 -36 -1 -81 -6 -100 -10 -19 -4 -51
-10 -71 -13 -61 -9 -248 -74 -323 -112 -280 -143 -485 -350 -620 -629 -46 -95
-101 -259 -111 -335 -4 -25 -10 -64 -15 -88 -12 -68 -4 -319 14 -407 54 -267
152 -465 326 -659 179 -199 413 -342 665 -406 175 -44 165 -44 1555 -44 1386
1 1326 -1 1524 39 112 23 334 126 456 214 185 132 356 337 443 531 48 108 94
251 103 323 2 15 6 39 10 55 3 15 7 90 9 168 3 186 -30 380 -90 519 -41 96
-61 136 -93 190 -208 347 -550 582 -947 651 -91 16 -212 18 -1383 18 -706 1
-1284 0 -1285 -1z m2648 -320 c276 -53 518 -214 672 -445 90 -134 137 -252
170 -426 13 -67 7 -303 -9 -377 -88 -397 -393 -712 -783 -809 -404 -100 -833
54 -1091 389 -143 187 -215 415 -209 660 4 135 7 161 36 260 123 420 484 724
904 761 39 4 71 7 72 9 8 6 171 -8 238 -22z"/>
</g>
</svg>
